<?xml version="1.0" encoding="UTF-8" standalone="no"?>
<!-- Created with Inkscape (http://www.inkscape.org/) -->

<svg
   xmlns:dc="http://purl.org/dc/elements/1.1/"
   xmlns:cc="http://creativecommons.org/ns#"
   xmlns:rdf="http://www.w3.org/1999/02/22-rdf-syntax-ns#"
   xmlns:svg="http://www.w3.org/2000/svg"
   xmlns="http://www.w3.org/2000/svg"
   xmlns:xlink="http://www.w3.org/1999/xlink"
   version="1.1"
   width="505.54288"
   height="470.10345"
   id="svg4280">
  <defs
     id="defs3">
    <filter
       color-interpolation-filters="sRGB"
       id="filter4095">
      <feGaussianBlur
         id="feGaussianBlur4097"
         stdDeviation="4.9915599" />
    </filter>
    <linearGradient
       x1="1107.8975"
       y1="1159.925"
       x2="1167.0571"
       y2="1667.2633"
       id="linearGradient3254"
       xlink:href="#linearGradient3248"
       gradientUnits="userSpaceOnUse" />
    <linearGradient
       id="linearGradient3248">
      <stop
         id="stop3250"
         style="stop-color:#ffffff;stop-opacity:1"
         offset="0" />
      <stop
         id="stop3252"
         style="stop-color:#ffffff;stop-opacity:0"
         offset="1" />
    </linearGradient>
    <linearGradient
       x1="1071.1469"
       y1="1559.7003"
       x2="1072.0432"
       y2="1638.5798"
       id="linearGradient3279"
       xlink:href="#linearGradient3261"
       gradientUnits="userSpaceOnUse"
       gradientTransform="translate(-44.367418,-2.535281)" />
    <linearGradient
       id="linearGradient3261">
      <stop
         id="stop3263"
         style="stop-color:#ffffff;stop-opacity:1"
         offset="0" />
      <stop
         id="stop3265"
         style="stop-color:#ffffff;stop-opacity:0"
         offset="1" />
    </linearGradient>
    <linearGradient
       x1="1071.1469"
       y1="1559.7003"
       x2="1072.0432"
       y2="1638.5798"
       id="linearGradient3283"
       xlink:href="#linearGradient3261"
       gradientUnits="userSpaceOnUse"
       gradientTransform="matrix(0.81241887,-0.58307425,0.58307425,0.81241887,-831.58623,993.69982)" />
    <linearGradient
       x1="1071.1469"
       y1="1559.7003"
       x2="1072.0432"
       y2="1638.5798"
       id="linearGradient3287"
       xlink:href="#linearGradient3261"
       gradientUnits="userSpaceOnUse"
       gradientTransform="matrix(0.76215798,-0.64739108,0.64739108,0.76215798,-948.05794,1185.7261)" />
    <linearGradient
       x1="1071.1469"
       y1="1559.7003"
       x2="1072.0432"
       y2="1638.5798"
       id="linearGradient3291"
       xlink:href="#linearGradient3261"
       gradientUnits="userSpaceOnUse"
       gradientTransform="matrix(0.76215798,-0.64739108,0.64739108,0.76215798,-966.88144,1125.6702)" />
    <linearGradient
       x1="1071.1469"
       y1="1559.7003"
       x2="1072.0432"
       y2="1638.5798"
       id="linearGradient3295"
       xlink:href="#linearGradient3261"
       gradientUnits="userSpaceOnUse"
       gradientTransform="matrix(0.88306325,-0.46925398,0.46925398,0.88306325,-748.56973,701.11839)" />
    <linearGradient
       x1="1071.1469"
       y1="1559.7003"
       x2="1072.0432"
       y2="1638.5798"
       id="linearGradient3301"
       xlink:href="#linearGradient3261"
       gradientUnits="userSpaceOnUse"
       gradientTransform="translate(-10.305844,52.142508)" />
  </defs>
  <metadata
     id="metadata4">
    <rdf:RDF>
      <cc:Work
         rdf:about="">
        <dc:format>image/svg+xml</dc:format>
        <dc:type
           rdf:resource="http://purl.org/dc/dcmitype/StillImage" />
        <dc:title></dc:title>
      </cc:Work>
    </rdf:RDF>
  </metadata>
  <g
     transform="translate(-85.14625,-82.078998)"
     id="layer1">
    <g
       transform="matrix(0.67757549,0,0,0.67757549,-443.33664,-764.1295)"
       id="g4210"
       style="font-size:56px;font-style:normal;font-variant:normal;font-weight:normal;font-stretch:normal;line-height:125%;letter-spacing:0px;word-spacing:0px;fill:#000000;fill-opacity:1;stroke:none;font-family:Freestyle Script;-inkscape-font-specification:Freestyle Script">
      <path
         d="m 1142.7755,1263.85 c -2.634,0.1244 -5.2547,2.1342 -7.2813,6.0625 -52.483,166.7657 -137.30693,345.8718 -247.87497,428.875 -6.87726,13.5828 2.60256,15.8405 10.25,15.8125 169.09817,57.3713 317.80167,26.0617 488.99997,0.188 9.4619,0.01 17.7235,-4.2234 11.3438,-15.7813 -26.1562,-177.0594 -85.5714,-281.6141 -248,-429.9692 -2.1373,-3.5476 -4.8035,-5.3119 -7.4375,-5.1875 z m -0.3239,91.6048 c 2.2184,1.4261 4.018,3.4811 6.0426,5.6452 165.1075,113.1227 181.6296,296.5074 185.4537,305.2051 1.1888,7.9798 -1.0457,8.5227 -6.3125,11.125 -131.6706,48.7547 -298.8451,44.9109 -352.5526,3.9545 -1.17462,0.1507 -10.81461,-4.4692 -11.81564,-9.1333 107.85854,-77.5444 127.61854,-191.5113 171.25834,-311.5261 0,0 1.3256,-7.1759 4.2816,-6.8548 0,0 1.743,0.3167 3.6445,1.5844 z"
         transform="matrix(0.95533004,0,0,0.99749999,39.008609,17.073741)"
         id="path4089"
         style="fill:#000000;fill-opacity:1;stroke:none;filter:url(#filter4095)" />
      <path
         d="m 1142.7755,1263.85 c -2.634,0.1244 -5.2547,2.1342 -7.2813,6.0625 -52.483,166.7657 -137.30693,345.8718 -247.87497,428.875 -6.87726,13.5828 2.60256,15.8405 10.25,15.8125 169.09817,57.3713 317.80167,26.0617 488.99997,0.188 9.4619,0.01 17.7235,-4.2234 11.3438,-15.7813 -26.1562,-177.0594 -85.5714,-281.6141 -248,-429.9692 -2.1373,-3.5476 -4.8035,-5.3119 -7.4375,-5.1875 z m -0.3239,91.6048 c 2.2184,1.4261 4.018,3.4811 6.0426,5.6452 165.1075,113.1227 181.6296,296.5074 185.4537,305.2051 1.1888,7.9798 -1.0457,8.5227 -6.3125,11.125 -131.6706,48.7547 -298.8451,44.9109 -352.5526,3.9545 -1.17462,0.1507 -10.81461,-4.4692 -11.81564,-9.1333 107.85854,-77.5444 127.61854,-191.5113 171.25834,-311.5261 0,0 1.3256,-7.1759 4.2816,-6.8548 0,0 1.743,0.3167 3.6445,1.5844 z"
         id="path3095"
         style="fill:#ff0000;fill-opacity:1;stroke:none" />
      <path
         d="m 1144.9933,1270.4921 c 0.072,-0.058 -0.2987,0.4135 0,0 z m 0.625,4.2187 -0.3125,0.9063 c -4.4981,17.3235 -11.4855,34.1443 -17.0625,51.2813 -15.2299,42.9128 -32.1024,85.4883 -51.3437,126.9062 3.4573,4.7379 7.2738,9.6089 11.5624,14.5 14.3421,-40.2861 25.856,-81.7316 42,-121.2812 2.2563,-2.8517 5.8393,-5.1168 9.6563,-5.0626 12.5632,1.0672 19.1302,13.6659 29.7187,18.8126 71.9727,53.0757 124.4418,129.739 153.6563,214.1874 14.6214,2.2134 27.8598,3.5054 39.75,4.1563 -15.8476,-49.276 -37.937,-96.4969 -67.7187,-138.875 -42.1689,-61.8548 -95.4502,-114.5088 -149.9063,-165.5313 z"
         id="path3226"
         style="fill:url(#linearGradient3254);fill-opacity:1;stroke:none" />
      <path
         d="m 350.73571,1869.8608 304.70336,0 c 5.46136,0 9.85805,4.3967 9.85805,9.8581 0,5.4614 -4.39669,9.858 -9.85805,9.858 l -304.70336,0 c -5.46136,0 -9.85805,-4.3966 -9.85805,-9.858 0,-5.4614 4.39669,-9.8581 9.85805,-9.8581 z"
         transform="matrix(0.92545106,-0.37886718,0.37886718,0.92545106,0,0)"
         id="rect3067"
         style="fill:#000000;fill-opacity:1;stroke:none" />
      <g
         transform="translate(1.6413661,1.7927142)"
         id="g3165"
         style="fill:#000000">
        <path
           d="m 306.70455,2119.5164 34.18052,0 c 3.85733,0 6.9627,3.1053 6.9627,6.9627 l 0,1.2659 c 0,3.8573 -3.10537,6.9627 -6.9627,6.9627 l -34.18052,0 c -3.85733,0 -6.9627,-3.1054 -6.9627,-6.9627 l 0,-1.2659 c 0,-3.8574 3.10537,-6.9627 6.9627,-6.9627 z m -113.54101,-66.1596 30.86647,17.4274 c 3.3589,1.8965 4.53632,6.1273 2.63982,9.4863 -1.89646,3.3589 -6.1274,4.5363 -9.4863,2.6398 l -30.86647,-17.4274 c -3.3589,-1.8964 -4.53627,-6.1274 -2.63982,-9.4863 1.89651,-3.359 6.1274,-4.5362 9.4863,-2.6398 z m 147.55608,-25.7734 8.42138,-1.7801 c 6.81459,-1.4405 11.99274,2.9987 11.61019,9.9533 l -4.40207,80.0289 c -0.38255,6.9546 -6.17664,13.7132 -12.99123,15.1536 l -8.42138,1.7802 c -6.81458,1.4405 -11.99273,-2.9987 -11.61018,-9.9534 l 4.40207,-80.0288 c 0.38255,-6.9547 6.17663,-13.7132 12.99122,-15.1537 z m 22.24908,-84.8833 10.94123,3.1783 c 5.38795,1.5652 8.46552,7.1628 6.9004,12.5507 l -18.36345,63.216 c -1.56514,5.388 -7.16272,8.4654 -12.55067,6.9003 l -10.94123,-3.1783 c -5.38795,-1.5651 -8.46554,-7.1626 -6.9004,-12.5506 l 18.36345,-63.216 c 1.56512,-5.3879 7.16272,-8.4655 12.55067,-6.9004 z m -116.9037,62.0207 9.92136,5.6017 c 4.88574,2.7585 6.59826,8.9125 3.83974,13.7983 l -28.6307,50.7091 c -2.75852,4.8857 -8.91255,6.5982 -13.79829,3.8397 l -9.92136,-5.6017 c -4.88574,-2.7585 -6.59826,-8.9125 -3.83974,-13.7983 l 28.6307,-50.7091 c 2.75852,-4.8857 8.91255,-6.5982 13.79829,-3.8397 z m 65.6883,-64.4496 8.07027,8.0426 c 3.97412,3.9604 3.98512,10.3483 0.0246,14.3224 l -52.72332,52.9052 c -3.96052,3.9742 -10.34838,3.9852 -14.32249,0.025 l -8.07028,-8.0425 c -3.97419,-3.9606 -3.98518,-10.3484 -0.0246,-14.3226 l 52.72331,-52.9051 c 3.96053,-3.9742 10.34838,-3.9852 14.32257,-0.025 z m -38.85316,-44.8838 c 1.39493,5.4344 -1.85713,10.9325 -7.29163,12.3275 l -55.17878,14.1634 c -5.4345,1.3949 -10.93256,-1.8572 -12.32749,-7.2916 -1.39494,-5.4345 1.85711,-10.9326 7.29161,-12.3275 l 55.17878,-14.1634 c 5.4345,-1.395 10.93257,1.8571 12.32751,7.2916 z m 25.7536,-45.6057 3.30718,1.8672 c 4.88565,2.7585 6.59817,8.9125 3.8397,13.7982 l -16.80504,29.7641 c -2.75847,4.8857 -8.9125,6.5982 -13.79816,3.8397 l -3.30717,-1.8672 c -4.88566,-2.7585 -6.59818,-8.9125 -3.8397,-13.7982 l 16.80503,-29.7641 c 2.75848,-4.8857 8.9125,-6.5982 13.79816,-3.8397 z m 146.88512,43.6799 c 4.88574,2.7586 6.59826,8.9126 3.83974,13.7983 l -19.91706,35.276 c -2.75848,4.8857 -8.9125,6.5982 -13.79825,3.8397 -4.88574,-2.7586 -6.59817,-8.9125 -3.8397,-13.7982 l 19.91706,-35.276 c 2.75852,-4.8857 8.91246,-6.5983 13.79821,-3.8398 z m -47.02735,-45.4511 50.70909,28.6307 c 4.88575,2.7585 6.59827,8.9126 3.83979,13.7982 -2.75852,4.8858 -8.91255,6.5983 -13.79829,3.8398 l -50.7091,-28.6307 c -4.88574,-2.7586 -6.59826,-8.9126 -3.83974,-13.7983 2.75848,-4.8857 8.9125,-6.5982 13.79825,-3.8397 z m -67.56579,-14.0792 27.85078,-0.01 c 14.72801,0 26.58859,11.8485 26.59323,26.5765 l 0.0211,67.0951 c 0.005,14.728 -11.84846,26.5886 -26.57647,26.5932 l -27.85078,0.01 c -14.72801,0 -26.58858,-11.8484 -26.59322,-26.5764 l -0.0211,-67.0951 c -0.005,-14.728 11.84846,-26.5887 26.57647,-26.5933 z m 42.30101,-13.2696 c -8.59365,15.2206 -28.14569,20.4535 -43.67069,11.6879 -15.525,-8.7655 -21.14398,-28.2101 -12.55033,-43.4307 8.59365,-15.2206 28.14569,-20.4534 43.6707,-11.6879 15.525,8.7655 21.14397,28.2101 12.55032,43.4307 z"
           transform="matrix(0.87079053,-0.49165421,0.49165421,0.87079053,0,0)"
           id="rect3075"
           style="fill:#000000;fill-opacity:1;stroke:none" />
        <path
           d="m 1186.9375,1373.5938 c -20.3741,-0.1387 -35.5354,26.3584 -23.3125,43.25 8.2135,12.5665 25.2772,14.7139 39.0625,13.0937 -7.1601,5.015 -15.4074,10.0009 -20.25,17.4063 -5.27,10.9777 -0.068,23.4383 7.0313,32.1874 11.4899,19.9249 21.3487,41.4353 35.9374,59.0313 -9.487,0.9097 -11.371,12.2341 -12.4062,19.875 -5.4285,20.8034 -13.4424,41.0561 -15.9688,62.5313 1.7438,2.4091 4.1181,4.2383 6.1876,6.2187 -7.3567,0.1404 -11.7593,8.0367 -9.9522,14.6842 0.9495,20.813 -0.2406,41.6573 0.6709,62.4721 7.1981,-2.45 17.8994,2.1416 22.375,-6 2.6083,-20.5124 1.0938,-41.7444 0.7187,-62.5313 -3.7303,-4.8817 2.7828,-9.8341 3.1322,-14.9163 5.2689,-18.3422 10.4098,-36.7321 15.6178,-55.0837 1.3342,-6.75 3.83,-14.5652 2.8438,-21 -2.4683,-1.6306 -4.7185,-3.4981 -7.375,-4.8125 12.9887,-0.1362 22.9376,-10.0659 34.5,-14.2812 3.9981,-0.8704 2.8634,5.937 3.875,8.4374 5.575,19.9719 7.2226,41.5131 16.875,60.25 5.8603,-3.1149 15.4804,-0.3665 18.5938,-7.6562 1.0501,-14.6684 -7.1862,-27.8344 -8.4093,-42.2942 -2.2428,-10.4719 -3.145,-23.218 -11.9657,-30.3308 -1.7138,-0.9844 -6.1219,0.9874 -3.6876,-2.0312 5.6066,-14.0781 -3.9061,-28.3353 -11.6874,-39.4063 -10.5647,-16.32 -16.1371,-37.1474 -32.125,-49.125 -9.0518,-6.0374 -21.9149,0.4011 -29.2188,3.1563 2.1299,-3.4756 1.027,-7.9229 4.2812,-11 4.4044,-6.4335 5.8429,-14.5516 2.75,-21.7813 -3.795,-11.7892 -15.4505,-20.9925 -28.0937,-20.3437 z m 124.4375,42.7812 c -19.5529,2.405 -39.698,-0.9511 -59.125,1.5625 -6.1013,3.2605 -1.552,14.5927 5.1562,11.875 19.5997,-0.6223 39.2249,0.5624 58.8126,-0.5625 -6.7556,13.9621 -1.8983,29.9638 -3.9376,44.5625 -1.9399,5.6793 2.9565,14.9229 9.625,11.6875 6.5922,-5.1386 1.3903,-14.6268 3.1414,-21.497 1.4392,-12.6329 0.2876,-25.831 -5.3288,-37.1592 2.1671,-5.3767 -2.9925,-10.7179 -8.3438,-10.4688 z m -140.5,51.0938 c -8.1898,0.3844 -9.3725,10.5911 -7.4375,16.7187 0.4573,9.9855 -3.3375,22.5512 4.25,30.625 7.0092,2.8345 14.7047,-5.433 11.7813,-12.1875 -0.018,-11.3563 1.2438,-22.8629 -1.4688,-34 -2.3996,-0.3436 -4.6744,-1.3279 -7.125,-1.1562 z m -7.75,49.4062 c -18.447,10.4422 -31.4151,28.6648 -47.2812,42.4688 -4.0477,5.8777 5.8205,13.4117 10.2187,7.625 13.3595,-15.5929 33.1448,-26.4655 42.1875,-45.375 -0.2776,-2.5291 -2.5458,-4.7414 -5.125,-4.7188 z m 141.125,75.2188 c -4.1873,6.6634 -14.4466,11.8501 -11.7812,21 7.0008,19.2781 18.4969,36.4754 26.5329,55.2783 4.2578,8.6893 8.6009,17.3372 12.8421,26.0341 15.1022,-1.8567 21.2163,-22.7403 11.2538,-33.6182 -13.316,-22.9866 -20.7341,-49.4245 -37.8788,-70.038 l -0.5849,0.8112 -0.3839,0.5326 z"
           id="path3192"
           style="fill:#000000;fill-opacity:1;stroke:none" />
        <path
           d="m 1186.9375,1373.5938 c -20.3741,-0.1387 -35.5354,26.3584 -23.3125,43.25 8.2135,12.5665 25.2772,14.7139 39.0625,13.0937 -7.1601,5.015 -15.4074,10.0009 -20.25,17.4063 -5.27,10.9777 -0.068,23.4383 7.0313,32.1874 11.4899,19.9249 21.3487,41.4353 35.9374,59.0313 -9.487,0.9097 -11.371,12.2341 -12.4062,19.875 -5.4285,20.8034 -13.4424,41.0561 -15.9688,62.5313 1.7438,2.4091 4.1181,4.2383 6.1876,6.2187 -7.3567,0.1404 -11.7593,8.0367 -9.9522,14.6842 0.9495,20.813 -0.2406,41.6573 0.6709,62.4721 7.1981,-2.45 17.8994,2.1416 22.375,-6 2.6083,-20.5124 1.0938,-41.7444 0.7187,-62.5313 -3.7303,-4.8817 2.7828,-9.8341 3.1322,-14.9163 5.2689,-18.3422 10.4098,-36.7321 15.6178,-55.0837 1.3342,-6.75 3.83,-14.5652 2.8438,-21 -2.4683,-1.6306 -4.7185,-3.4981 -7.375,-4.8125 12.9887,-0.1362 22.9376,-10.0659 34.5,-14.2812 3.9981,-0.8704 2.8634,5.937 3.875,8.4374 5.575,19.9719 7.2226,41.5131 16.875,60.25 5.8603,-3.1149 15.4804,-0.3665 18.5938,-7.6562 1.0501,-14.6684 -7.1862,-27.8344 -8.4093,-42.2942 -2.2428,-10.4719 -3.145,-23.218 -11.9657,-30.3308 -1.7138,-0.9844 -6.1219,0.9874 -3.6876,-2.0312 5.6066,-14.0781 -3.9061,-28.3353 -11.6874,-39.4063 -10.5647,-16.32 -16.1371,-37.1474 -32.125,-49.125 -9.0518,-6.0374 -21.9149,0.4011 -29.2188,3.1563 2.1299,-3.4756 1.027,-7.9229 4.2812,-11 4.4044,-6.4335 5.8429,-14.5516 2.75,-21.7813 -3.795,-11.7892 -15.4505,-20.9925 -28.0937,-20.3437 z m 124.4375,42.7812 c -19.5529,2.405 -39.698,-0.9511 -59.125,1.5625 -6.1013,3.2605 -1.552,14.5927 5.1562,11.875 19.5997,-0.6223 39.2249,0.5624 58.8126,-0.5625 -6.7556,13.9621 -1.8983,29.9638 -3.9376,44.5625 -1.9399,5.6793 2.9565,14.9229 9.625,11.6875 6.5922,-5.1386 1.3903,-14.6268 3.1414,-21.497 1.4392,-12.6329 0.2876,-25.831 -5.3288,-37.1592 2.1671,-5.3767 -2.9925,-10.7179 -8.3438,-10.4688 z m -140.5,51.0938 c -8.1898,0.3844 -9.3725,10.5911 -7.4375,16.7187 0.4573,9.9855 -3.3375,22.5512 4.25,30.625 7.0092,2.8345 14.7047,-5.433 11.7813,-12.1875 -0.018,-11.3563 1.2438,-22.8629 -1.4688,-34 -2.3996,-0.3436 -4.6744,-1.3279 -7.125,-1.1562 z m -7.75,49.4062 c -18.447,10.4422 -31.4151,28.6648 -47.2812,42.4688 -4.0477,5.8777 5.8205,13.4117 10.2187,7.625 13.3595,-15.5929 33.1448,-26.4655 42.1875,-45.375 -0.2776,-2.5291 -2.5458,-4.7414 -5.125,-4.7188 z m 141.125,75.2188 c -4.1873,6.6634 -14.4466,11.8501 -11.7812,21 7.0008,19.2781 18.4969,36.4754 26.5329,55.2783 4.2578,8.6893 8.6009,17.3372 12.8421,26.0341 15.1022,-1.8567 21.2163,-22.7403 11.2538,-33.6182 -13.316,-22.9866 -20.7341,-49.4245 -37.8788,-70.038 l -0.5849,0.8112 -0.3839,0.5326 z"
           id="path3216"
           style="fill:#000000;fill-opacity:1;stroke:none" />
      </g>
      <path
         d="m 988.21909,1595.5187 50.26841,0 c 2.8675,0 5.1761,2.3085 5.1761,5.1761 l 0,42.4822 c 0,2.8676 -2.3086,5.1761 -5.1761,5.1761 l -50.26841,0 c -2.86757,0 -5.17612,-2.3085 -5.17612,-5.1761 l 0,-42.4822 c 0,-2.8676 2.30855,-5.1761 5.17612,-5.1761 z"
         id="rect3131"
         style="fill:#000000;fill-opacity:1;stroke:#ffffff;stroke-width:0.62045836" />
      <path
         d="m -301.948,1909.1761 50.26837,0 c 2.86757,0 5.17612,2.3086 5.17612,5.1762 l 0,42.4822 c 0,2.8676 -2.30855,5.1761 -5.17612,5.1761 l -50.26837,0 c -2.86757,0 -5.17611,-2.3085 -5.17611,-5.1761 l 0,-42.4822 c 0,-2.8676 2.30854,-5.1762 5.17611,-5.1762 z"
         transform="matrix(0.78802903,-0.61563809,0.61563809,0.78802903,0,0)"
         id="rect3133"
         style="fill:#000000;fill-opacity:1;stroke:#ffffff;stroke-width:0.62045836" />
      <path
         d="m 34.536375,1864.9716 50.268364,0 c 2.86757,0 5.176119,2.3085 5.176119,5.1761 l 0,42.4822 c 0,2.8676 -2.308549,5.1761 -5.176119,5.1761 l -50.268364,0 c -2.86757,0 -5.176119,-2.3085 -5.176119,-5.1761 l 0,-42.4822 c 0,-2.8676 2.308549,-5.1761 5.176119,-5.1761 z"
         transform="matrix(0.88120666,-0.47273123,0.47273123,0.88120666,0,0)"
         id="rect3135"
         style="fill:#000000;fill-opacity:1;stroke:#ffffff;stroke-width:0.62045836" />
      <path
         d="m -463.68979,1821.4111 50.26837,0 c 2.86757,0 5.17612,2.3086 5.17612,5.1762 l 0,42.4822 c 0,2.8676 -2.30855,5.1761 -5.17612,5.1761 l -50.26837,0 c -2.86757,0 -5.17612,-2.3085 -5.17612,-5.1761 l 0,-42.4822 c 0,-2.8676 2.30855,-5.1762 5.17612,-5.1762 z"
         transform="matrix(0.75114363,-0.66013881,0.66013881,0.75114363,0,0)"
         id="rect3137"
         style="fill:#000000;fill-opacity:1;stroke:#ffffff;stroke-width:0.62045836" />
      <path
         d="m -495.6383,1877.8335 50.26836,0 c 2.86757,0 5.17612,2.3085 5.17612,5.1761 l 0,42.4822 c 0,2.8676 -2.30855,5.1762 -5.17612,5.1762 l -50.26836,0 c -2.86757,0 -5.17612,-2.3086 -5.17612,-5.1762 l 0,-42.4822 c 0,-2.8676 2.30855,-5.1761 5.17612,-5.1761 z"
         transform="matrix(0.74888662,-0.66269814,0.66269814,0.74888662,0,0)"
         id="rect3139"
         style="fill:#000000;fill-opacity:1;stroke:#ffffff;stroke-width:0.62045836" />
      <path
         d="m -1073.6783,1634.7996 17.0608,0 c 0.9733,0 1.7568,0.7835 1.7568,1.7567 l 0,14.4183 c 0,0.9732 -0.7835,1.7567 -1.7568,1.7567 l -17.0608,0 c -0.9732,0 -1.7568,-0.7835 -1.7568,-1.7567 l 0,-14.4183 c 0,-0.9732 0.7836,-1.7567 1.7568,-1.7567 z"
         transform="matrix(0.53140362,-0.84711876,0.84711876,0.53140362,0,0)"
         id="rect3141"
         style="fill:#000000;fill-opacity:1;stroke:none" />
      <path
         d="m -65.980836,1890.8174 17.060854,0 c 0.97324,0 1.756751,0.7835 1.756751,1.7567 l 0,14.4183 c 0,0.9733 -0.783511,1.7568 -1.756751,1.7568 l -17.060854,0 c -0.97324,0 -1.756751,-0.7835 -1.756751,-1.7568 l 0,-14.4183 c 0,-0.9732 0.783511,-1.7567 1.756751,-1.7567 z"
         transform="matrix(0.88120666,-0.47273123,0.47273123,0.88120666,0,0)"
         id="rect3143"
         style="fill:#000000;fill-opacity:1;stroke:none" />
      <path
         d="m -185.15289,2044.4969 17.06086,0 c 0.97324,0 1.75675,0.7836 1.75675,1.7568 l 0,14.4183 c 0,0.9732 -0.78351,1.7567 -1.75675,1.7567 l -17.06086,0 c -0.97324,0 -1.75675,-0.7835 -1.75675,-1.7567 l 0,-14.4183 c 0,-0.9732 0.78351,-1.7568 1.75675,-1.7568 z"
         transform="matrix(0.88120666,-0.47273123,0.47273123,0.88120666,0,0)"
         id="rect3145"
         style="fill:#000000;fill-opacity:1;stroke:none" />
      <path
         d="m -937.05679,1776.496 17.06086,0 c 0.97324,0 1.75675,0.7835 1.75675,1.7567 l 0,14.4183 c 0,0.9732 -0.78351,1.7568 -1.75675,1.7568 l -17.06086,0 c -0.97324,0 -1.75675,-0.7836 -1.75675,-1.7568 l 0,-14.4183 c 0,-0.9732 0.78351,-1.7567 1.75675,-1.7567 z"
         transform="matrix(0.5942849,-0.8042546,0.8042546,0.5942849,0,0)"
         id="rect3147"
         style="fill:#000000;fill-opacity:1;stroke:none" />
      <path
         d="m -1171.3979,1609.5101 17.0608,0 c 0.9733,0 1.7568,0.7835 1.7568,1.7568 l 0,14.4183 c 0,0.9732 -0.7835,1.7567 -1.7568,1.7567 l -17.0608,0 c -0.9733,0 -1.7568,-0.7835 -1.7568,-1.7567 l 0,-14.4183 c 0,-0.9733 0.7835,-1.7568 1.7568,-1.7568 z"
         transform="matrix(0.49578171,-0.86844718,0.86844718,0.49578171,0,0)"
         id="rect3149"
         style="fill:#000000;fill-opacity:1;stroke:none" />
      <path
         d="m -159.93783,2003.0447 17.06085,0 c 0.97325,0 1.75676,0.7835 1.75676,1.7567 l 0,14.4183 c 0,0.9732 -0.78351,1.7568 -1.75676,1.7568 l -17.06085,0 c -0.97324,0 -1.75675,-0.7836 -1.75675,-1.7568 l 0,-14.4183 c 0,-0.9732 0.78351,-1.7567 1.75675,-1.7567 z"
         transform="matrix(0.88120666,-0.47273123,0.47273123,0.88120666,0,0)"
         id="rect3151"
         style="fill:#000000;fill-opacity:1;stroke:none" />
      <path
         d="m -489.63894,1936.4208 17.06085,0 c 0.97324,0 1.75676,0.7835 1.75676,1.7567 l 0,14.4183 c 0,0.9732 -0.78352,1.7568 -1.75676,1.7568 l -17.06085,0 c -0.97324,0 -1.75675,-0.7836 -1.75675,-1.7568 l 0,-14.4183 c 0,-0.9732 0.78351,-1.7567 1.75675,-1.7567 z"
         transform="matrix(0.74157085,-0.67087456,0.67087456,0.74157085,0,0)"
         id="rect3153"
         style="fill:#000000;fill-opacity:1;stroke:none" />
      <path
         d="m -652.94839,1819.2428 17.06086,0 c 0.97324,0 1.75675,0.7835 1.75675,1.7567 l 0,14.4183 c 0,0.9733 -0.78351,1.7568 -1.75675,1.7568 l -17.06086,0 c -0.97324,0 -1.75675,-0.7835 -1.75675,-1.7568 l 0,-14.4183 c 0,-0.9732 0.78351,-1.7567 1.75675,-1.7567 z"
         transform="matrix(0.70128188,-0.71288409,0.71288409,0.70128188,0,0)"
         id="rect3155"
         style="fill:#000000;fill-opacity:1;stroke:none" />
      <path
         d="m -1073.3029,1735.3507 17.0608,0 c 0.9733,0 1.7568,0.7835 1.7568,1.7568 l 0,14.4182 c 0,0.9733 -0.7835,1.7568 -1.7568,1.7568 l -17.0608,0 c -0.9733,0 -1.7568,-0.7835 -1.7568,-1.7568 l 0,-14.4182 c 0,-0.9733 0.7835,-1.7568 1.7568,-1.7568 z"
         transform="matrix(0.5626183,-0.82671679,0.82671679,0.5626183,0,0)"
         id="rect3157"
         style="fill:#000000;fill-opacity:1;stroke:none" />
      <path
         d="m -1698.0798,1018.0715 17.0609,0 c 0.9732,0 1.7567,0.7835 1.7567,1.7567 l 0,14.4183 c 0,0.9732 -0.7835,1.7568 -1.7567,1.7568 l -17.0609,0 c -0.9732,0 -1.7567,-0.7836 -1.7567,-1.7568 l 0,-14.4183 c 0,-0.9732 0.7835,-1.7567 1.7567,-1.7567 z"
         transform="matrix(0.09375913,-0.99559491,0.99559491,0.09375913,0,0)"
         id="rect3159"
         style="fill:#000000;fill-opacity:1;stroke:none" />
      <path
         d="m -493.34664,1940.1248 17.06085,0 c 0.97324,0 1.75675,0.7835 1.75675,1.7567 l 0,14.4183 c 0,0.9732 -0.78351,1.7567 -1.75675,1.7567 l -17.06085,0 c -0.97324,0 -1.75675,-0.7835 -1.75675,-1.7567 l 0,-14.4183 c 0,-0.9732 0.78351,-1.7567 1.75675,-1.7567 z"
         transform="matrix(0.75333307,-0.65763918,0.65763918,0.75333307,0,0)"
         id="rect3161"
         style="fill:#000000;fill-opacity:1;stroke:none" />
      <path
         d="m -1157.3154,1650.38 17.0609,0 c 0.9732,0 1.7567,0.7835 1.7567,1.7568 l 0,14.4182 c 0,0.9733 -0.7835,1.7568 -1.7567,1.7568 l -17.0609,0 c -0.9732,0 -1.7567,-0.7835 -1.7567,-1.7568 l 0,-14.4182 c 0,-0.9733 0.7835,-1.7568 1.7567,-1.7568 z"
         transform="matrix(0.50285093,-0.86437315,0.86437315,0.50285093,0,0)"
         id="rect3163"
         style="fill:#000000;fill-opacity:1;stroke:none" />
      <path
         d="m 1034.9138,1598.0585 c -16.0261,1.1349 -32.4584,-1.0047 -48.25002,0.875 -3.4711,4.8031 2.2887,9.8344 5.2813,13.0624 8.94212,8.7422 22.41352,10.3946 34.32882,7.9362 4.6282,-0.7581 10.749,-0.636 14.5149,-2.3736 -0.5494,-6.2109 1.9924,-13.3692 -1.1562,-18.9063 -1.4412,-0.7443 -3.1396,-0.7133 -4.7188,-0.5937 z"
         id="rect3256"
         style="fill:url(#linearGradient3279);fill-opacity:1;stroke:none" />
      <path
         d="m 978.50718,1664.7513 c -12.3581,10.2664 -26.95559,18.1094 -38.689,28.8442 -0.0194,5.926 7.59357,6.6552 11.90701,7.5328 12.36209,1.8884 24.26999,-4.624 32.51669,-13.5688 3.3181,-3.3145 8.3619,-6.7841 10.4082,-10.3916 -4.0677,-4.7255 -6.1765,-12.0231 -11.9631,-14.6857 -1.6048,0.2357 -2.9665,1.2511 -4.1798,2.2691 z"
         id="path3281"
         style="fill:url(#linearGradient3283);fill-opacity:1;stroke:none" />
      <path
         d="m 910.73496,1706.9143 c -11.47963,11.2402 -25.38883,20.2476 -36.20764,31.9036 0.46398,5.9078 8.11106,6.0137 12.48171,6.5365 12.47492,0.8739 23.81201,-6.588 31.30171,-16.1755 3.03673,-3.5741 7.78075,-7.4435 9.52601,-11.2059 -4.43955,-4.378 -7.1365,-11.4793 -13.12098,-13.6611 -1.58023,0.3658 -2.85458,1.4889 -3.98081,2.6024 z"
         id="path3285"
         style="fill:url(#linearGradient3287);fill-opacity:1;stroke:none" />
      <path
         d="m 891.91146,1646.8584 c -11.47963,11.2402 -25.38883,20.2476 -36.20764,31.9036 0.46398,5.9078 8.11106,6.0137 12.48171,6.5365 12.47492,0.8739 23.81201,-6.588 31.30171,-16.1755 3.03673,-3.5741 7.78075,-7.4435 9.52601,-11.2059 -4.43955,-4.378 -7.1365,-11.4793 -13.12098,-13.6611 -1.58023,0.3658 -2.85458,1.4889 -3.98081,2.6024 z"
         id="path3289"
         style="fill:url(#linearGradient3291);fill-opacity:1;stroke:none" />
      <path
         d="m 955.58884,1608.0868 c -13.61946,8.5226 -29.13426,14.3441 -42.19721,23.4143 -0.81129,5.8702 6.6359,7.6104 10.79336,9.0566 11.99875,3.5238 24.67026,-1.3385 34.03849,-9.1008 3.7314,-2.8412 9.1937,-5.6055 11.7038,-8.9072 -3.3996,-5.2268 -4.5141,-12.7408 -9.8928,-16.1529 -1.6219,0.019 -3.1071,0.8434 -4.44564,1.69 z"
         id="path3293"
         style="fill:url(#linearGradient3295);fill-opacity:1;stroke:none" />
      <path
         d="m 1022.2807,1650.1964 50.2684,0 c 2.8676,0 5.1761,2.3086 5.1761,5.1761 l 0,42.4823 c 0,2.8675 -2.3085,5.1761 -5.1761,5.1761 l -50.2684,0 c -2.8675,0 -5.1761,-2.3086 -5.1761,-5.1761 l 0,-42.4823 c 0,-2.8675 2.3086,-5.1761 5.1761,-5.1761 z"
         id="rect3297"
         style="fill:#000000;fill-opacity:1;stroke:#ffffff;stroke-width:0.62045836" />
      <path
         d="m 1068.9754,1652.7363 c -16.0261,1.1349 -32.4584,-1.0047 -48.25,0.875 -3.4711,4.8031 2.2887,9.8344 5.2813,13.0624 8.9421,8.7422 22.4135,10.3946 34.3288,7.9362 4.6282,-0.7581 10.749,-0.636 14.5149,-2.3736 -0.5494,-6.2109 1.9924,-13.3692 -1.1562,-18.9063 -1.4412,-0.7443 -3.1396,-0.7133 -4.7188,-0.5937 z"
         id="path3299"
         style="fill:url(#linearGradient3301);fill-opacity:1;stroke:none" />
      <path
         d="m 1086.9196,1802.8099 c 2.0397,5.9222 1.6564,10.5449 -1.1499,13.8679 -2.5832,3.0807 -6.9919,4.87 -13.2263,5.3677 -6.2344,0.4978 -11.613,-0.4166 -16.1358,-2.7432 -5.0583,-2.6576 -8.5949,-6.9115 -10.6099,-12.7616 l -8.4286,-24.4714 14.6169,-1.1669 8.0345,23.327 c 0.6634,1.926 1.7333,3.4459 3.2097,4.5597 1.4764,1.1137 3.1853,1.5931 5.1267,1.4381 2.0166,-0.161 3.3096,-0.9735 3.8789,-2.4374 0.5451,-1.3127 0.4674,-2.9864 -0.2334,-5.0212 l -7.8655,-22.8363 14.5042,-1.158 z"
         id="path4144"
         style="text-align:center;text-anchor:middle;font-family:HeadlineNEWS;-inkscape-font-specification:HeadlineNEWS" />
      <path
         d="m 1145.613,1815.4839 -13.5522,1.0819 -23.7637,-19.2155 7.4685,20.5165 -14.6716,1.1713 -14.0977,-40.9309 13.6069,-1.0863 23.8408,19.2658 -7.5439,-20.5669 14.6152,-1.1668 z"
         id="path4146"
         style="text-align:center;text-anchor:middle;font-family:HeadlineNEWS;-inkscape-font-specification:HeadlineNEWS" />
      <path
         d="m 1160.9305,1772.261 c 6.3847,-0.5098 12.2471,0.973 17.587,4.4483 5.3399,3.4752 9.0735,8.301 11.2008,14.4771 2.0524,5.959 1.8688,10.9669 -0.5507,15.0241 -2.4195,4.0573 -6.6719,6.3288 -12.7569,6.8146 l -21.5606,1.7213 -14.0788,-40.876 z m 13.9472,19.9429 c -1.0136,-2.9429 -2.5864,-5.2253 -4.7184,-6.8472 -2.2925,-1.7584 -4.9324,-2.5184 -7.9197,-2.2799 l -3.1924,0.2549 6.7953,19.7295 3.3052,-0.2639 c 3.0613,-0.2444 5.0568,-1.3556 5.9863,-3.3337 0.8679,-1.8238 0.7825,-4.2438 -0.2563,-7.2597 z"
         id="path4148"
         style="text-align:center;text-anchor:middle;font-family:HeadlineNEWS;-inkscape-font-specification:HeadlineNEWS" />
      <path
         d="m 1233.8052,1808.4429 -29.8491,2.383 -14.0977,-40.9309 29.7363,-2.374 3.2287,9.374 -15.1194,1.2071 2.1592,6.2688 13.6633,-1.0908 3.2097,9.3191 -13.6633,1.0909 2.2903,6.6496 15.2322,-1.2161 z"
         id="path4150"
         style="text-align:center;text-anchor:middle;font-family:HeadlineNEWS;-inkscape-font-specification:HeadlineNEWS" />
      <path
         d="m 1284.3706,1804.4059 -15.7363,1.2563 c -4.5273,-5.1266 -6.8468,-7.7414 -6.9582,-7.8442 -4.0039,-4.2729 -6.6095,-6.3794 -7.8169,-6.3195 l -3.5679,-1.3403 5.688,16.5143 -14.5606,1.1625 -14.0977,-40.9309 22.9602,-1.833 c 4.4798,-0.3577 8.3645,0.2283 11.6541,1.7577 3.8738,1.7815 6.5178,4.7252 7.9321,8.8312 1.6769,4.8689 0.2145,8.42 -4.3871,10.6536 1.408,0.5223 4.7931,3.5002 10.1555,8.9339 2.8931,3.0537 5.8048,6.1065 8.7348,9.1584 z m -28.408,-26.6839 c -1.1137,-3.2334 -3.7612,-4.6831 -7.9425,-4.3493 l -3.4162,0.2727 3.3788,9.8099 3.3598,-0.2683 c 1.7921,-0.143 3.1168,-0.6407 3.974,-1.493 1.0063,-0.977 1.2216,-2.301 0.6461,-3.972 z"
         id="path4152"
         style="text-align:center;text-anchor:middle;font-family:HeadlineNEWS;-inkscape-font-specification:HeadlineNEWS" />
      <path
         d="m 903.40729,1911.3529 c -4.31299,2.8082 -9.22437,4.4642 -14.73416,4.9679 -8.0598,0.737 -15.2987,-0.9691 -21.71675,-5.118 -6.5949,-4.2692 -11.0398,-10.2826 -13.33482,-18.0408 -2.33465,-7.8924 -1.50772,-14.5024 2.4807,-19.831 3.8602,-5.1346 9.88828,-8.0765 18.08422,-8.826 4.50791,-0.4121 9.70791,0.092 15.60008,1.5126 l 4.50457,15.2277 c -4.78001,-1.9308 -9.15092,-2.7152 -13.11268,-2.353 -3.82564,0.3498 -6.60096,1.5605 -8.32599,3.6316 -1.88148,2.1745 -2.28451,5.0794 -1.20902,8.715 1.06264,3.5922 3.1639,6.269 6.30384,8.0302 2.85994,1.6062 6.20207,2.2345 10.02628,1.8847 3.64356,-0.333 7.33243,-1.8542 11.06663,-4.5636 z"
         id="path4154"
         style="text-align:center;text-anchor:middle;font-family:HeadlineNEWS;-inkscape-font-specification:HeadlineNEWS" />
      <path
         d="m 960.74163,1882.8883 c 2.38699,8.0694 1.75647,14.6728 -1.89164,19.8101 -3.64817,5.1376 -9.6383,8.0873 -17.9704,8.8491 -8.24184,0.7536 -15.55924,-0.8995 -21.95226,-4.959 -6.58068,-4.2259 -11.04474,-10.3065 -13.39218,-18.242 -2.37385,-8.0247 -1.64438,-14.6484 2.18842,-19.8708 3.70419,-5.0299 9.72234,-7.9259 18.05446,-8.6878 7.96805,-0.7285 15.18402,0.9797 21.648,5.1244 6.59521,4.2704 11.03373,10.2623 13.3156,17.976 z m -17.9735,1.8476 c -0.91782,-3.1025 -2.42627,-5.5144 -4.52541,-7.236 -2.33327,-1.8808 -5.04793,-2.6798 -8.14395,-2.3967 -3.18781,0.2915 -5.3156,1.556 -6.38343,3.7935 -0.99871,2.0036 -1.02575,4.6019 -0.0811,7.795 0.91814,3.1038 2.42729,5.5157 4.52747,7.2358 2.24151,1.8893 4.91031,2.6923 8.0064,2.4092 3.27946,-0.2998 5.46632,-1.5238 6.56059,-3.6723 0.99688,-2.0046 1.01005,-4.6474 0.0395,-7.9285 z"
         id="path4156"
         style="text-align:center;text-anchor:middle;font-family:HeadlineNEWS;-inkscape-font-specification:HeadlineNEWS" />
      <path
         d="m 1031.7422,1902.3517 -16.5294,1.5113 -27.76919,-23.2119 7.8942,25.0292 -17.8947,1.6361 -14.7745,-49.9447 16.5962,-1.5174 27.85989,23.2725 -7.98279,-25.0899 17.82589,-1.6298 z"
         id="path4158"
         style="text-align:center;text-anchor:middle;font-family:HeadlineNEWS;-inkscape-font-specification:HeadlineNEWS" />
      <path
         d="m 1074.9965,1882.3468 c 1.5475,5.2307 0.7178,9.5408 -2.4882,12.93 -2.8762,3.0866 -7.0914,4.8839 -12.6457,5.3918 -7.1954,0.6578 -13.8866,-0.4605 -20.0734,-3.355 l -1.9645,-13.2774 c 6.2277,3.3466 11.5275,4.8201 15.8992,4.4202 1.4119,-0.1289 2.5401,-0.5052 3.3846,-1.1286 1.0907,-0.7375 1.4458,-1.7489 1.0657,-3.0343 -0.3803,-1.2854 -2.5948,-2.4488 -6.6437,-3.4905 -5.6061,-1.3996 -9.4866,-2.6609 -11.6414,-3.784 -4.4175,-2.2835 -7.2691,-5.5977 -8.5542,-9.9423 -1.5478,-5.2321 -0.6727,-9.5468 2.6252,-12.9446 2.9782,-3.05 7.2453,-4.8291 12.8009,-5.3372 5.282,-0.4828 10.9713,0.568 17.0679,3.1525 l 1.5612,12.6305 c -5.9211,-2.7825 -10.4748,-4.0281 -13.6612,-3.7368 -3.0516,0.279 -4.2759,1.438 -3.6726,3.477 0.4591,1.5519 2.7071,2.8264 6.7441,3.8231 5.6379,1.3522 9.4527,2.5516 11.4449,3.5977 4.4305,2.3269 7.3476,5.8629 8.7512,10.6079 z"
         id="path4160"
         style="text-align:center;text-anchor:middle;font-family:HeadlineNEWS;-inkscape-font-specification:HeadlineNEWS" />
      <path
         d="m 1118.8633,1856.8206 -13.2507,1.2116 10.8198,36.5762 -17.6905,1.6175 -10.8199,-36.5762 -13.3194,1.2178 -3.9546,-13.3687 44.2607,-4.0467 z"
         id="path4162"
         style="text-align:center;text-anchor:middle;font-family:HeadlineNEWS;-inkscape-font-specification:HeadlineNEWS" />
      <path
         d="m 1190.1772,1887.8658 -19.1934,1.7548 c -5.2061,-6.2178 -7.8739,-9.3888 -8.0034,-9.5132 -4.6192,-5.1792 -7.6639,-7.7237 -9.1345,-7.6339 l -4.2583,-1.5928 5.9611,20.1512 -17.7593,1.6238 -14.7745,-49.9447 28.0043,-2.5606 c 5.4639,-0.4995 10.1504,0.1654 14.0595,1.9934 4.6045,2.1289 7.6478,5.6986 9.13,10.7088 1.7574,5.9411 -0.2238,10.3112 -5.9437,13.1103 1.6806,0.6204 5.6225,4.2218 11.8256,10.8042 3.3397,3.7008 6.7019,7.4004 10.0866,11.0987 z m -32.9828,-32.2966 c -1.1671,-3.9455 -4.3007,-5.685 -9.4006,-5.2187 l -4.1667,0.381 3.541,11.9702 4.0979,-0.3747 c 2.1859,-0.1998 3.8242,-0.8276 4.9149,-1.8835 1.2788,-1.2104 1.6167,-2.8353 1.0135,-4.8743 z"
         id="path4164"
         style="text-align:center;text-anchor:middle;font-family:HeadlineNEWS;-inkscape-font-specification:HeadlineNEWS" />
      <path
         d="m 1239.6994,1862.1642 c 2.1377,7.2265 1.4058,12.8943 -2.1954,17.0033 -3.3161,3.8091 -8.776,6.0614 -16.38,6.7566 -7.604,0.6952 -14.0868,-0.3502 -19.4486,-3.1389 -5.9933,-3.1861 -10.0458,-8.3482 -12.1575,-15.4866 l -8.8332,-29.8605 17.828,-1.6301 8.4201,28.4642 c 0.6953,2.3502 1.9079,4.1973 3.6377,5.5412 1.7299,1.344 3.7787,1.9079 6.1466,1.6912 2.4597,-0.2248 4.0776,-1.2377 4.8535,-3.0387 0.7379,-1.6156 0.7399,-3.6648 0,-6.147 l -8.243,-27.8654 17.6906,-1.6175 z"
         id="path4166"
         style="text-align:center;text-anchor:middle;font-family:HeadlineNEWS;-inkscape-font-specification:HeadlineNEWS" />
      <path
         d="m 1297.4799,1875.3221 c -4.3129,2.8081 -9.2243,4.464 -14.7341,4.9678 -8.0598,0.737 -15.2988,-0.9691 -21.7168,-5.1181 -6.5948,-4.2689 -11.0397,-10.2826 -13.3348,-18.0408 -2.3346,-7.8922 -1.5076,-14.5024 2.4807,-19.8307 3.8602,-5.1346 9.8883,-8.0768 18.0842,-8.8262 4.5079,-0.412 9.708,0.092 15.6001,1.5128 l 4.5046,15.2275 c -4.7801,-1.9306 -9.151,-2.7152 -13.1127,-2.3529 -3.8257,0.3498 -6.6009,1.5603 -8.326,3.6316 -1.8815,2.1745 -2.2844,5.0794 -1.2089,8.715 1.0626,3.5922 3.1638,6.269 6.3038,8.0302 2.8599,1.6061 6.2021,2.2344 10.0262,1.8847 3.6437,-0.3331 7.3325,-1.8543 11.0667,-4.5638 z"
         id="path4168"
         style="text-align:center;text-anchor:middle;font-family:HeadlineNEWS;-inkscape-font-specification:HeadlineNEWS" />
      <path
         d="m 1339.2451,1836.6707 -13.2506,1.2115 10.8198,36.5762 -17.6906,1.6176 -10.8198,-36.5763 -13.3194,1.2178 -3.9546,-13.3685 44.2607,-4.0468 z"
         id="path4170"
         style="text-align:center;text-anchor:middle;font-family:HeadlineNEWS;-inkscape-font-specification:HeadlineNEWS" />
      <path
         d="m 1376.1348,1870.8633 -17.6905,1.6175 -14.7744,-49.9448 17.6905,-1.6174 z"
         id="path4172"
         style="text-align:center;text-anchor:middle;font-family:HeadlineNEWS;-inkscape-font-specification:HeadlineNEWS" />
      <path
         d="m 1433.2553,1839.6853 c 2.3869,8.0694 1.7565,14.6728 -1.8917,19.8103 -3.6481,5.1375 -9.6382,8.0872 -17.9704,8.849 -8.2418,0.7535 -15.5591,-0.8995 -21.9521,-4.959 -6.5807,-4.226 -11.0449,-10.3066 -13.3923,-18.2419 -2.3739,-8.0248 -1.6444,-14.6484 2.1885,-19.8708 3.7042,-5.03 9.7222,-7.926 18.0544,-8.6879 7.9681,-0.7285 15.1841,0.9797 21.6481,5.1244 6.5952,4.2704 11.0336,10.2624 13.3155,17.9759 z m -17.9735,1.8476 c -0.9178,-3.1024 -2.4262,-5.5144 -4.5254,-7.236 -2.3332,-1.8808 -5.0479,-2.6796 -8.144,-2.3966 -3.1877,0.2915 -5.3155,1.556 -6.3834,3.7937 -0.9986,2.0034 -1.0257,4.6017 -0.081,7.7947 0.9181,3.1039 2.4273,5.5157 4.5274,7.2359 2.2416,1.8891 4.9104,2.6923 8.0064,2.4092 3.2795,-0.2999 5.4664,-1.5239 6.5606,-3.6723 0.9969,-2.0046 1.0101,-4.6475 0.039,-7.9286 z"
         id="path4174"
         style="text-align:center;text-anchor:middle;font-family:HeadlineNEWS;-inkscape-font-specification:HeadlineNEWS" />
      <path
         d="m 1504.256,1859.1488 -16.5295,1.5114 -27.7692,-23.212 7.8943,25.0292 -17.8949,1.6361 -14.7744,-49.9446 16.5962,-1.5175 27.8599,23.2725 -7.9829,-25.0898 17.8261,-1.63 z"
         id="path4176"
         style="text-align:center;text-anchor:middle;font-family:HeadlineNEWS;-inkscape-font-specification:HeadlineNEWS" />
    </g>
  </g>
</svg>
